<svg id="visual" viewBox="0 0 900 600" width="900" height="600" xmlns="http://www.w3.org/2000/svg" xmlns:xlink="http://www.w3.org/1999/xlink" version="1.1"><rect x="0" y="0" width="900" height="600" fill="#1c1917"></rect><path d="M0 459L16.7 450.8C33.3 442.7 66.7 426.3 100 418.2C133.3 410 166.7 410 200 415.2C233.3 420.3 266.7 430.7 300 431.7C333.3 432.7 366.7 424.3 400 416.7C433.3 409 466.7 402 500 398.5C533.3 395 566.7 395 600 405.7C633.3 416.3 666.7 437.7 700 447.2C733.3 456.7 766.7 454.3 800 444.8C833.3 435.3 866.7 418.7 883.3 410.3L900 402L900 601L883.3 601C866.7 601 833.3 601 800 601C766.7 601 733.3 601 700 601C666.7 601 633.3 601 600 601C566.7 601 533.3 601 500 601C466.7 601 433.3 601 400 601C366.7 601 333.3 601 300 601C266.7 601 233.3 601 200 601C166.7 601 133.3 601 100 601C66.7 601 33.3 601 16.7 601L0 601Z" fill="#36000b"></path><path d="M0 463L16.7 463.7C33.3 464.3 66.7 465.7 100 467.7C133.3 469.7 166.7 472.3 200 474.3C233.3 476.3 266.7 477.7 300 476.8C333.3 476 366.7 473 400 474.8C433.3 476.7 466.7 483.3 500 482.8C533.3 482.3 566.7 474.7 600 472.2C633.3 469.7 666.7 472.3 700 474.3C733.3 476.3 766.7 477.7 800 477.8C833.3 478 866.7 477 883.3 476.5L900 476L900 601L883.3 601C866.7 601 833.3 601 800 601C766.7 601 733.3 601 700 601C666.7 601 633.3 601 600 601C566.7 601 533.3 601 500 601C466.7 601 433.3 601 400 601C366.7 601 333.3 601 300 601C266.7 601 233.3 601 200 601C166.7 601 133.3 601 100 601C66.7 601 33.3 601 16.7 601L0 601Z" fill="#60021e"></path><path d="M0 533L16.7 528.7C33.3 524.3 66.7 515.7 100 513.7C133.3 511.7 166.7 516.3 200 515.3C233.3 514.3 266.7 507.7 300 504.2C333.3 500.7 366.7 500.3 400 506.3C433.3 512.3 466.7 524.7 500 525.2C533.3 525.7 566.7 514.3 600 511C633.3 507.7 666.7 512.3 700 517.5C733.3 522.7 766.7 528.3 800 526C833.3 523.7 866.7 513.3 883.3 508.2L900 503L900 601L883.3 601C866.7 601 833.3 601 800 601C766.7 601 733.3 601 700 601C666.7 601 633.3 601 600 601C566.7 601 533.3 601 500 601C466.7 601 433.3 601 400 601C366.7 601 333.3 601 300 601C266.7 601 233.3 601 200 601C166.7 601 133.3 601 100 601C66.7 601 33.3 601 16.7 601L0 601Z" fill="#8d072e"></path><path d="M0 563L16.7 563.3C33.3 563.7 66.7 564.3 100 565C133.3 565.7 166.7 566.3 200 561.5C233.3 556.7 266.7 546.3 300 540.7C333.3 535 366.7 534 400 533C433.3 532 466.7 531 500 532.5C533.3 534 566.7 538 600 542.7C633.3 547.3 666.7 552.7 700 556.3C733.3 560 766.7 562 800 561.2C833.3 560.3 866.7 556.7 883.3 554.8L900 553L900 601L883.3 601C866.7 601 833.3 601 800 601C766.7 601 733.3 601 700 601C666.7 601 633.3 601 600 601C566.7 601 533.3 601 500 601C466.7 601 433.3 601 400 601C366.7 601 333.3 601 300 601C266.7 601 233.3 601 200 601C166.7 601 133.3 601 100 601C66.7 601 33.3 601 16.7 601L0 601Z" fill="#be123c"></path></svg>